<svg width="60" height="60" viewBox="0 0 60 60" fill="none" xmlns="http://www.w3.org/2000/svg">
<g clip-path="url(#clip0_1_35)">
<path d="M51.375 27.375C49.625 29.125 47.5 30 45 30C42.5 30 40.375 29.125 38.625 27.375C36.875 25.625 36 23.5 36 21C36 18.5 36.875 16.375 38.625 14.625C40.375 12.875 42.5 12 45 12C47.5 12 49.625 12.875 51.375 14.625C53.125 16.375 54 18.5 54 21C54 23.5 53.125 25.625 51.375 27.375ZM49.2188 16.7812C48.0312 15.5938 46.625 15 45 15C43.375 15 41.9688 15.5938 40.7812 16.7812C39.5938 17.9688 39 19.375 39 21C39 22.625 39.5938 24.0312 40.7812 25.2188C41.9688 26.4062 43.375 27 45 27C46.625 27 48.0312 26.4062 49.2188 25.2188C50.4062 24.0312 51 22.625 51 21C51 19.375 50.4062 17.9688 49.2188 16.7812ZM25.4062 26.9062C23.3438 28.9688 20.875 30 18 30C15.125 30 12.6562 28.9688 10.5938 26.9062C8.53125 24.8438 7.5 22.375 7.5 19.5C7.5 16.625 8.53125 14.1562 10.5938 12.0938C12.6562 10.0312 15.125 9 18 9C20.875 9 23.3438 10.0312 25.4062 12.0938C27.4688 14.1562 28.5 16.625 28.5 19.5C28.5 22.375 27.4688 24.8438 25.4062 26.9062ZM23.25 14.25C21.8125 12.75 20.0625 12 18 12C15.9375 12 14.1562 12.75 12.6562 14.25C11.2188 15.6875 10.5 17.4375 10.5 19.5C10.5 21.5625 11.2188 23.3438 12.6562 24.8438C14.1562 26.2812 15.9375 27 18 27C20.0625 27 21.8125 26.2812 23.25 24.8438C24.75 23.3438 25.5 21.5625 25.5 19.5C25.5 17.4375 24.75 15.6875 23.25 14.25ZM25.5 31.875C29.3125 31.875 32.1875 33.3438 34.125 36.2812C35.375 38.0938 36 40.0938 36 42.2812V46.5C36 47.75 35.5625 48.8125 34.6875 49.6875C33.8125 50.5625 32.75 51 31.5 51H4.5C3.25 51 2.1875 50.5625 1.3125 49.6875C0.4375 48.8125 0 47.75 0 46.5V42.2812C0 40.0938 0.625 38.0938 1.875 36.2812C3.8125 33.3438 6.6875 31.875 10.5 31.875C11.5 31.875 12.6875 32.0625 14.0625 32.4375C15.4375 32.8125 16.75 33 18 33C19.25 33 20.5625 32.8125 21.9375 32.4375C23.3125 32.0625 24.5 31.875 25.5 31.875ZM33 46.5V42.2812C33 40.7188 32.5625 39.2812 31.6875 37.9688C30.3125 35.9062 28.25 34.875 25.5 34.875C24.75 34.875 23.6562 35.0625 22.2188 35.4375C20.8438 35.8125 19.4375 36 18 36C16.5625 36 15.125 35.8125 13.6875 35.4375C12.3125 35.0625 11.25 34.875 10.5 34.875C7.75 34.875 5.6875 35.9062 4.3125 37.9688C3.4375 39.2812 3 40.7188 3 42.2812V46.5C3 46.9375 3.125 47.3125 3.375 47.625C3.6875 47.875 4.0625 48 4.5 48H31.5C31.9375 48 32.2812 47.875 32.5312 47.625C32.8438 47.3125 33 46.9375 33 46.5ZM58.5 35.7188C59.5 37.2188 60 38.9062 60 40.7812V44.25C60 45.3125 59.625 46.2188 58.875 46.9688C58.1875 47.6562 57.3125 48 56.25 48H38.8125C38.9375 47.5 39 46.5 39 45H56.25C56.75 45 57 44.75 57 44.25V40.7812C57 39.5312 56.6562 38.4062 55.9688 37.4062C54.9062 35.8438 53.3438 35.0625 51.2812 35.0625C50.7188 35.0625 49.8438 35.2188 48.6562 35.5312C47.4688 35.8438 46.25 36 45 36C43.75 36 42.5312 35.8438 41.3438 35.5312C40.1562 35.2188 39.2812 35.0625 38.7188 35.0625C38.2188 35.0625 37.6562 35.1562 37.0312 35.3438C36.5312 34.4062 35.9062 33.5625 35.1562 32.8125C36.3438 32.3125 37.5312 32.0625 38.7188 32.0625C39.5938 32.0625 40.5938 32.2188 41.7188 32.5312C42.8438 32.8438 43.9375 33 45 33C46.0625 33 47.1562 32.8438 48.2812 32.5312C49.4062 32.2188 50.4062 32.0625 51.2812 32.0625C54.4062 32.0625 56.8125 33.2812 58.5 35.7188Z" fill="url(#paint0_linear_1_35)"/>
</g>
<defs>
<linearGradient id="paint0_linear_1_35" x1="0" y1="54" x2="60" y2="-6" gradientUnits="userSpaceOnUse">
<stop stop-color="#00ABFE"/>
<stop offset="1" stop-color="#6600FF"/>
</linearGradient>
<clipPath id="clip0_1_35">
<rect width="60" height="42" fill="white" transform="translate(0 9)"/>
</clipPath>
</defs>
</svg>
