<svg width="60" height="60" viewBox="0 0 60 60" fill="none" xmlns="http://www.w3.org/2000/svg">
<g clip-path="url(#clip0_1_38)">
<path d="M39.8438 30.9375C40.4688 30.3125 41.1875 30 42 30C42.8125 30 43.5 30.3125 44.0625 30.9375C44.6875 31.5 45 32.1875 45 33C45 33.8125 44.6875 34.5312 44.0625 35.1562C43.5 35.7188 42.8125 36 42 36C41.1875 36 40.4688 35.7188 39.8438 35.1562C39.2812 34.5312 39 33.8125 39 33C39 32.1875 39.2812 31.5 39.8438 30.9375ZM49.5 15C50.75 15 51.8125 15.4375 52.6875 16.3125C53.5625 17.1875 54 18.25 54 19.5V45C54 46.6875 53.4062 48.0938 52.2188 49.2188C51.0938 50.4062 49.6875 51 48 51H15C12.5 51 10.375 50.125 8.625 48.375C6.875 46.625 6 44.5 6 42V18C6 15.5 6.875 13.375 8.625 11.625C10.375 9.875 12.5 9 15 9H43.5C44.75 9 45.8125 9.4375 46.6875 10.3125C47.5625 11.1875 48 12.25 48 13.5V15H49.5ZM51 45V19.5C51 19.0625 50.8438 18.7188 50.5312 18.4688C50.2812 18.1562 49.9375 18 49.5 18H16.5C16.0625 18 15.6875 17.875 15.375 17.625C15.125 17.3125 15 16.9375 15 16.5C15 16.0625 15.125 15.7188 15.375 15.4688C15.6875 15.1562 16.0625 15 16.5 15H45V13.5C45 13.0625 44.8438 12.7188 44.5312 12.4688C44.2812 12.1562 43.9375 12 43.5 12H15C13.375 12 11.9688 12.5938 10.7812 13.7812C9.59375 14.9688 9 16.375 9 18V42C9 43.625 9.59375 45.0312 10.7812 46.2188C11.9688 47.4062 13.375 48 15 48H48C48.8125 48 49.5 47.7188 50.0625 47.1562C50.6875 46.5312 51 45.8125 51 45Z" fill="url(#paint0_linear_1_38)"/>
</g>
<defs>
<linearGradient id="paint0_linear_1_38" x1="6" y1="54" x2="64.5366" y2="7.17073" gradientUnits="userSpaceOnUse">
<stop stop-color="#00ABFE"/>
<stop offset="1" stop-color="#6600FF"/>
</linearGradient>
<clipPath id="clip0_1_38">
<rect width="48" height="42" fill="white" transform="translate(6 9)"/>
</clipPath>
</defs>
</svg>
