<svg width="60" height="60" viewBox="0 0 60 60" fill="none" xmlns="http://www.w3.org/2000/svg">
<g clip-path="url(#clip0_1_39)">
<path d="M10.5 39C10.9375 39 11.2812 39.1562 11.5312 39.4688C11.8438 39.7188 12 40.0625 12 40.5V52.5C12 52.9375 11.8438 53.2812 11.5312 53.5312C11.2812 53.8438 10.9375 54 10.5 54H4.5C4.0625 54 3.6875 53.8438 3.375 53.5312C3.125 53.2812 3 52.9375 3 52.5V40.5C3 40.0625 3.125 39.7188 3.375 39.4688C3.6875 39.1562 4.0625 39 4.5 39H10.5ZM9 51V42H6V51H9ZM55.5 24C55.9375 24 56.2812 24.1562 56.5312 24.4688C56.8438 24.7188 57 25.0625 57 25.5V52.5C57 52.9375 56.8438 53.2812 56.5312 53.5312C56.2812 53.8438 55.9375 54 55.5 54H49.5C49.0625 54 48.6875 53.8438 48.375 53.5312C48.125 53.2812 48 52.9375 48 52.5V25.5C48 25.0625 48.125 24.7188 48.375 24.4688C48.6875 24.1562 49.0625 24 49.5 24H55.5ZM54 51V27H51V51H54ZM50.1562 14.3438L41.7188 21C41.9062 21.5625 42 22.0625 42 22.5C42 23.75 41.5625 24.8125 40.6875 25.6875C39.8125 26.5625 38.75 27 37.5 27C36.25 27 35.1875 26.5625 34.3125 25.6875C33.4375 24.8125 33 23.75 33 22.5C33 22.0625 33.0938 21.5625 33.2812 21L24.8438 14.3438C24.0938 14.7812 23.3125 15 22.5 15C21.8125 15 21.1562 14.8438 20.5312 14.5312L11.5312 23.5312C11.8438 24.1562 12 24.8125 12 25.5C12 26.75 11.5625 27.8125 10.6875 28.6875C9.8125 29.5625 8.75 30 7.5 30C6.25 30 5.1875 29.5625 4.3125 28.6875C3.4375 27.8125 3 26.75 3 25.5C3 24.25 3.4375 23.1875 4.3125 22.3125C5.1875 21.4375 6.25 21 7.5 21C8.1875 21 8.84375 21.1563 9.46875 21.4688L18.4688 12.4688C18.1562 11.8438 18 11.1875 18 10.5C18 9.25 18.4375 8.1875 19.3125 7.3125C20.1875 6.4375 21.25 6 22.5 6C23.75 6 24.8125 6.4375 25.6875 7.3125C26.5625 8.1875 27 9.25 27 10.5C27 10.9375 26.9062 11.4375 26.7188 12L35.1562 18.6562C35.9062 18.2187 36.6875 18 37.5 18C38.3125 18 39.0938 18.2187 39.8438 18.6562L48.2812 12C48.0938 11.4375 48 10.9375 48 10.5C48 9.25 48.4375 8.1875 49.3125 7.3125C50.1875 6.4375 51.25 6 52.5 6C53.75 6 54.8125 6.4375 55.6875 7.3125C56.5625 8.1875 57 9.25 57 10.5C57 11.75 56.5625 12.8125 55.6875 13.6875C54.8125 14.5625 53.75 15 52.5 15C51.6875 15 50.9062 14.7812 50.1562 14.3438ZM53.5312 9.46875C53.2812 9.15625 52.9375 9 52.5 9C52.0625 9 51.6875 9.15625 51.375 9.46875C51.125 9.71875 51 10.0625 51 10.5C51 10.9375 51.125 11.3125 51.375 11.625C51.6875 11.875 52.0625 12 52.5 12C52.9375 12 53.2812 11.875 53.5312 11.625C53.8438 11.3125 54 10.9375 54 10.5C54 10.0625 53.8438 9.71875 53.5312 9.46875ZM6.375 26.625C6.6875 26.875 7.0625 27 7.5 27C7.9375 27 8.28125 26.875 8.53125 26.625C8.84375 26.3125 9 25.9375 9 25.5C9 25.0625 8.84375 24.7188 8.53125 24.4688C8.28125 24.1562 7.9375 24 7.5 24C7.0625 24 6.6875 24.1562 6.375 24.4688C6.125 24.7188 6 25.0625 6 25.5C6 25.9375 6.125 26.3125 6.375 26.625ZM21.375 11.625C21.6875 11.875 22.0625 12 22.5 12C22.9375 12 23.2812 11.875 23.5312 11.625C23.8438 11.3125 24 10.9375 24 10.5C24 10.0625 23.8438 9.71875 23.5312 9.46875C23.2812 9.15625 22.9375 9 22.5 9C22.0625 9 21.6875 9.15625 21.375 9.46875C21.125 9.71875 21 10.0625 21 10.5C21 10.9375 21.125 11.3125 21.375 11.625ZM36.375 23.625C36.6875 23.875 37.0625 24 37.5 24C37.9375 24 38.2812 23.875 38.5312 23.625C38.8438 23.3125 39 22.9375 39 22.5C39 22.0625 38.8438 21.7188 38.5312 21.4688C38.2812 21.1563 37.9375 21 37.5 21C37.0625 21 36.6875 21.1563 36.375 21.4688C36.125 21.7188 36 22.0625 36 22.5C36 22.9375 36.125 23.3125 36.375 23.625ZM25.5 24C25.9375 24 26.2812 24.1562 26.5312 24.4688C26.8438 24.7188 27 25.0625 27 25.5V52.5C27 52.9375 26.8438 53.2812 26.5312 53.5312C26.2812 53.8438 25.9375 54 25.5 54H19.5C19.0625 54 18.6875 53.8438 18.375 53.5312C18.125 53.2812 18 52.9375 18 52.5V25.5C18 25.0625 18.125 24.7188 18.375 24.4688C18.6875 24.1562 19.0625 24 19.5 24H25.5ZM24 51V27H21V51H24ZM40.5 36C40.9375 36 41.2812 36.1562 41.5312 36.4688C41.8438 36.7188 42 37.0625 42 37.5V52.5C42 52.9375 41.8438 53.2812 41.5312 53.5312C41.2812 53.8438 40.9375 54 40.5 54H34.5C34.0625 54 33.6875 53.8438 33.375 53.5312C33.125 53.2812 33 52.9375 33 52.5V37.5C33 37.0625 33.125 36.7188 33.375 36.4688C33.6875 36.1562 34.0625 36 34.5 36H40.5ZM39 51V39H36V51H39Z" fill="url(#paint0_linear_1_39)"/>
</g>
<defs>
<linearGradient id="paint0_linear_1_39" x1="3" y1="54" x2="62.6685" y2="0.298343" gradientUnits="userSpaceOnUse">
<stop stop-color="#00ABFE"/>
<stop offset="1" stop-color="#6600FF"/>
</linearGradient>
<clipPath id="clip0_1_39">
<rect width="54" height="48" fill="white" transform="translate(3 6)"/>
</clipPath>
</defs>
</svg>
