<svg width="60" height="60" viewBox="0 0 60 60" fill="none" xmlns="http://www.w3.org/2000/svg">
<g clip-path="url(#clip0_1_40)">
<path d="M52.4062 21.4688C53.4688 22.3438 54 23.5 54 24.9375V49.5C54 50.75 53.5625 51.8125 52.6875 52.6875C51.8125 53.5625 50.75 54 49.5 54H10.5C9.25 54 8.1875 53.5625 7.3125 52.6875C6.4375 51.8125 6 50.75 6 49.5V24.8438C6 23.4688 6.5625 22.3125 7.6875 21.375C7.9375 21.1875 9.375 20.0313 12 17.9062V15C12 14.1875 12.2812 13.5 12.8438 12.9375C13.4688 12.3125 14.1875 12 15 12H19.3125C19.4375 11.9375 19.5938 11.8125 19.7812 11.625C20.0312 11.4375 20.2188 11.3125 20.3438 11.25C20.4062 11.125 20.8438 10.75 21.6562 10.125C22.4688 9.4375 23.0938 8.9375 23.5312 8.625C23.9688 8.3125 24.5625 7.90625 25.3125 7.40625C26.125 6.90625 26.9062 6.5625 27.6562 6.375C28.4688 6.125 29.25 6 30 6C30.75 6 31.5 6.125 32.25 6.375C33.0625 6.5625 33.8438 6.90625 34.5938 7.40625C35.4062 7.90625 36.0312 8.3125 36.4688 8.625C36.9062 8.9375 37.5312 9.4375 38.3438 10.125C39.1562 10.75 39.5938 11.125 39.6562 11.25C40.0312 11.5 40.375 11.75 40.6875 12H45C45.8125 12 46.5 12.3125 47.0625 12.9375C47.6875 13.5 48 14.1875 48 15V17.9062C50.6875 20.0937 52.1562 21.2812 52.4062 21.4688ZM35.9062 12C33.4688 10 31.5 9 30 9C28.5 9 26.5312 10 24.0938 12H35.9062ZM15 15V31.2188C18.6875 34.2188 21.4062 36.4062 23.1562 37.7812C23.1562 37.7812 23.5938 38.1562 24.4688 38.9062C25.3438 39.5938 26 40.0938 26.4375 40.4062C26.875 40.7188 27.4375 41.0625 28.125 41.4375C28.875 41.8125 29.5 42 30 42C30.5 42 31.0938 41.8125 31.7812 41.4375C32.5312 41.0625 33.125 40.7188 33.5625 40.4062C34 40.0938 34.6562 39.5938 35.5312 38.9062C36.4062 38.1562 36.8438 37.7812 36.8438 37.7812C38.6562 36.3438 41.375 34.1562 45 31.2188V15H15ZM9 24.8438V26.4375C10.1875 27.375 11.1875 28.1875 12 28.875V21.75C10.4375 23 9.625 23.6562 9.5625 23.7188C9.1875 24.0312 9 24.4062 9 24.8438ZM51 49.5V30.2812C45.125 35.0312 41.0312 38.3125 38.7188 40.125C38.5938 40.1875 38.1562 40.5312 37.4062 41.1562C36.7188 41.7812 36.1562 42.25 35.7188 42.5625C35.2812 42.875 34.7188 43.25 34.0312 43.6875C33.3438 44.125 32.6562 44.4688 31.9688 44.7188C31.2812 44.9062 30.625 45 30 45C29.375 45 28.7188 44.9062 28.0312 44.7188C27.3438 44.4688 26.625 44.125 25.875 43.6875C25.1875 43.25 24.625 42.875 24.1875 42.5625C23.75 42.25 23.1875 41.7812 22.5 41.1562C21.8125 40.5312 21.4062 40.1875 21.2812 40.125C18.8438 38.1875 14.75 34.9062 9 30.2812V49.5C9 49.9375 9.125 50.2812 9.375 50.5312C9.6875 50.8438 10.0625 51 10.5 51H49.5C49.9375 51 50.2812 50.8438 50.5312 50.5312C50.8438 50.2812 51 49.9375 51 49.5ZM51 26.4375V24.9375C51 24.4375 50.8125 24.0312 50.4375 23.7188C50.3125 23.5938 49.5 22.9375 48 21.75V28.875C48.375 28.5625 48.9062 28.125 49.5938 27.5625C50.2812 27 50.75 26.625 51 26.4375ZM27.4688 28.5938C26.5938 28.2812 25.875 27.75 25.3125 27C24.75 26.25 24.4688 25.4062 24.4688 24.4688C24.4688 23.7188 24.6562 23.0312 25.0312 22.4062C25.4062 21.7812 25.875 21.2812 26.4375 20.9062C27.0625 20.4687 27.75 20.25 28.5 20.25V18.75C28.5 18.25 28.75 18 29.25 18H30.75C31.25 18 31.5 18.25 31.5 18.75V20.25C32.5625 20.3125 33.5312 20.6875 34.4062 21.375C34.9062 21.6875 34.9375 22.0625 34.5 22.5L33.375 23.5312C33.125 23.7812 32.8125 23.8125 32.4375 23.625C32.0625 23.375 31.6562 23.25 31.2188 23.25H28.5938C28.2812 23.25 28 23.375 27.75 23.625C27.5625 23.875 27.4688 24.1562 27.4688 24.4688C27.4688 25.0938 27.75 25.5 28.3125 25.6875L32.5312 26.9062C33.4062 27.2188 34.125 27.75 34.6875 28.5C35.25 29.25 35.5312 30.0938 35.5312 31.0312C35.5312 32.1562 35.125 33.125 34.3125 33.9375C33.5625 34.75 32.625 35.1875 31.5 35.25V36.75C31.5 37.25 31.25 37.5 30.75 37.5H29.25C28.75 37.5 28.5 37.25 28.5 36.75V35.25C27.4375 35.1875 26.4688 34.8125 25.5938 34.125C25.0938 33.8125 25.0625 33.4375 25.5 33L26.625 31.9688C26.875 31.7188 27.1875 31.6875 27.5625 31.875C27.9375 32.125 28.3438 32.25 28.7812 32.25H31.4062C31.7188 32.25 31.9688 32.125 32.1562 31.875C32.4062 31.625 32.5312 31.3438 32.5312 31.0312C32.5312 30.4062 32.25 30 31.6875 29.8125L27.4688 28.5938Z" fill="url(#paint0_linear_1_40)"/>
</g>
<defs>
<linearGradient id="paint0_linear_1_40" x1="6" y1="54" x2="64.5366" y2="7.17073" gradientUnits="userSpaceOnUse">
<stop stop-color="#00ABFE"/>
<stop offset="1" stop-color="#6600FF"/>
</linearGradient>
<clipPath id="clip0_1_40">
<rect width="48" height="48" fill="white" transform="translate(6 6)"/>
</clipPath>
</defs>
</svg>
