<svg width="60" height="60" viewBox="0 0 60 60" fill="none" xmlns="http://www.w3.org/2000/svg">
<g clip-path="url(#clip0_1_41)">
<path d="M46.5 12C47.75 12 48.8125 12.4375 49.6875 13.3125C50.5625 14.1875 51 15.25 51 16.5V49.5C51 50.75 50.5625 51.8125 49.6875 52.6875C48.8125 53.5625 47.75 54 46.5 54H13.5C12.25 54 11.1875 53.5625 10.3125 52.6875C9.4375 51.8125 9 50.75 9 49.5V16.5C9 15.25 9.4375 14.1875 10.3125 13.3125C11.1875 12.4375 12.25 12 13.5 12H18V7.125C18 6.375 18.375 6 19.125 6H19.875C20.625 6 21 6.375 21 7.125V12H39V7.125C39 6.375 39.375 6 40.125 6H40.875C41.625 6 42 6.375 42 7.125V12H46.5ZM13.5 15C13.0625 15 12.6875 15.1562 12.375 15.4688C12.125 15.7188 12 16.0625 12 16.5V21H48V16.5C48 16.0625 47.8438 15.7188 47.5312 15.4688C47.2812 15.1562 46.9375 15 46.5 15H13.5ZM46.5 51C46.9375 51 47.2812 50.8438 47.5312 50.5312C47.8438 50.2812 48 49.9375 48 49.5V24H12V49.5C12 49.9375 12.125 50.2812 12.375 50.5312C12.6875 50.8438 13.0625 51 13.5 51H46.5ZM22.875 36H19.125C18.375 36 18 35.625 18 34.875V31.125C18 30.375 18.375 30 19.125 30H22.875C23.625 30 24 30.375 24 31.125V34.875C24 35.625 23.625 36 22.875 36ZM31.875 36H28.125C27.375 36 27 35.625 27 34.875V31.125C27 30.375 27.375 30 28.125 30H31.875C32.625 30 33 30.375 33 31.125V34.875C33 35.625 32.625 36 31.875 36ZM40.875 36H37.125C36.375 36 36 35.625 36 34.875V31.125C36 30.375 36.375 30 37.125 30H40.875C41.625 30 42 30.375 42 31.125V34.875C42 35.625 41.625 36 40.875 36ZM31.875 45H28.125C27.375 45 27 44.625 27 43.875V40.125C27 39.375 27.375 39 28.125 39H31.875C32.625 39 33 39.375 33 40.125V43.875C33 44.625 32.625 45 31.875 45ZM22.875 45H19.125C18.375 45 18 44.625 18 43.875V40.125C18 39.375 18.375 39 19.125 39H22.875C23.625 39 24 39.375 24 40.125V43.875C24 44.625 23.625 45 22.875 45ZM40.875 45H37.125C36.375 45 36 44.625 36 43.875V40.125C36 39.375 36.375 39 37.125 39H40.875C41.625 39 42 39.375 42 40.125V43.875C42 44.625 41.625 45 40.875 45Z" fill="url(#paint0_linear_1_41)"/>
</g>
<defs>
<linearGradient id="paint0_linear_1_41" x1="9" y1="54" x2="65.3758" y2="14.5369" gradientUnits="userSpaceOnUse">
<stop stop-color="#00ABFE"/>
<stop offset="1" stop-color="#6600FF"/>
</linearGradient>
<clipPath id="clip0_1_41">
<rect width="42" height="48" fill="white" transform="translate(9 6)"/>
</clipPath>
</defs>
</svg>
