<svg width="60" height="60" viewBox="0 0 60 60" fill="none" xmlns="http://www.w3.org/2000/svg">
<path d="M37.4062 17.4375C39.7812 18.9375 41.9062 20.5938 43.7812 22.4062C45.6562 24.1562 47.1562 25.7812 48.2812 27.2812C49.4062 28.7188 50.375 30.375 51.1875 32.25C52 34.125 52.5625 35.5938 52.875 36.6562C53.25 37.6562 53.5312 38.9375 53.7188 40.5C53.9062 42 54 42.875 54 43.125C54 43.3125 54 43.8125 54 44.625C54 47.1875 53 49.375 51 51.1875C49 53.0625 46.5625 54 43.6875 54H16.3125C13.4375 54 11 53.0625 9 51.1875C7 49.375 6 47.1875 6 44.625C6 33.5625 11.5312 24.5 22.5938 17.4375L18.5625 10.6875C17.875 9.6875 17.8125 8.65625 18.375 7.59375C18.9375 6.53125 19.8125 6 21 6H39C40.1875 6 41.0625 6.53125 41.625 7.59375C42.1875 8.65625 42.1562 9.6875 41.5312 10.6875L37.4062 17.4375ZM21 9L25.5938 16.5H34.4062L39 9H21ZM51 44.625V44.3438C51 42.6562 50.8125 40.9375 50.4375 39.1875C50.0625 37.4375 49.375 35.4375 48.375 33.1875C47.375 30.875 45.75 28.5312 43.5 26.1562C41.25 23.7188 38.4688 21.5 35.1562 19.5H24.8438C21.5312 21.5 18.75 23.7188 16.5 26.1562C14.25 28.5312 12.625 30.875 11.625 33.1875C10.625 35.4375 9.9375 37.4375 9.5625 39.1875C9.1875 40.9375 9 42.6562 9 44.3438V44.625C9 46.375 9.71875 47.875 11.1562 49.125C12.5938 50.375 14.3125 51 16.3125 51H43.6875C45.6875 51 47.4062 50.375 48.8438 49.125C50.2812 47.875 51 46.375 51 44.625ZM32.8125 35.1562C33.75 35.4062 34.5 35.9375 35.0625 36.75C35.6875 37.5625 36 38.4688 36 39.4688C36 40.0938 35.875 40.6875 35.625 41.25C35.4375 41.8125 35.125 42.3125 34.6875 42.75C34.3125 43.125 33.8438 43.4375 33.2812 43.6875C32.7812 43.9375 32.2188 44.0625 31.5938 44.0625V45.6562C31.5938 46.2188 31.3438 46.5 30.8438 46.5H29.1562C28.6562 46.5 28.4062 46.2188 28.4062 45.6562V44.0625C27.2188 44 26.125 43.625 25.125 42.9375C24.9375 42.75 24.8438 42.5312 24.8438 42.2812C24.8438 42.0312 24.9375 41.8438 25.125 41.7188L26.3438 40.5938C26.4688 40.4062 26.6562 40.3125 26.9062 40.3125C27.0312 40.3125 27.1875 40.375 27.375 40.5C27.75 40.75 28.1875 40.875 28.6875 40.875H31.5C31.8125 40.875 32.0938 40.75 32.3438 40.5C32.5938 40.1875 32.7188 39.875 32.7188 39.5625C32.7188 38.875 32.4062 38.4375 31.7812 38.25L27.1875 36.8438C26.25 36.5938 25.4688 36.0625 24.8438 35.25C24.2812 34.4375 24 33.5312 24 32.5312C24 31.2812 24.4062 30.2188 25.2188 29.3438C26.0938 28.4688 27.125 28 28.3125 27.9375V26.3438C28.375 25.7812 28.6562 25.5 29.1562 25.5H30.8438C31.3438 25.5 31.5938 25.7812 31.5938 26.3438V27.9375C32.7812 28 33.8438 28.375 34.7812 29.0625C35.0312 29.25 35.1562 29.4688 35.1562 29.7188C35.1562 29.9688 35.0625 30.1562 34.875 30.2812L33.6562 31.5C33.5312 31.625 33.3438 31.6875 33.0938 31.6875C32.9688 31.6875 32.8125 31.625 32.625 31.5C32.25 31.25 31.8125 31.125 31.3125 31.125H28.5C28.1875 31.125 27.9062 31.2812 27.6562 31.5938C27.4062 31.8438 27.2812 32.1562 27.2812 32.5312C27.2812 33.1562 27.5938 33.5625 28.2188 33.75L32.8125 35.1562Z" fill="url(#paint0_linear_1_42)"/>
<defs>
<linearGradient id="paint0_linear_1_42" x1="6" y1="54" x2="64.5366" y2="7.17073" gradientUnits="userSpaceOnUse">
<stop stop-color="#00ABFE"/>
<stop offset="1" stop-color="#6600FF"/>
</linearGradient>
</defs>
</svg>
