<svg width="36" height="36" viewBox="0 0 36 36" fill="none" xmlns="http://www.w3.org/2000/svg">
<path d="M32.625 10.125C33.5625 10.125 34.3594 10.4531 35.0156 11.1094C35.6719 11.7656 36 12.5625 36 13.5V20.25C36 20.5781 35.8828 20.8594 35.6484 21.0938C35.4609 21.2812 35.2031 21.375 34.875 21.375H33.75V31.5C33.75 32.4375 33.4219 33.2344 32.7656 33.8906C32.1094 34.5469 31.3125 34.875 30.375 34.875H5.625C4.6875 34.875 3.89062 34.5469 3.23438 33.8906C2.57812 33.2344 2.25 32.4375 2.25 31.5V21.375H1.125C0.796875 21.375 0.515625 21.2812 0.28125 21.0938C0.09375 20.8594 0 20.5781 0 20.25V13.5C0 12.5625 0.328125 11.7656 0.984375 11.1094C1.64062 10.4531 2.4375 10.125 3.375 10.125H6.11719C5.41406 9.09375 5.0625 7.96875 5.0625 6.75C5.0625 5.20312 5.57812 3.89062 6.60938 2.8125C7.64062 1.6875 8.85938 1.125 10.2656 1.125C11.7188 1.125 12.9844 1.61719 14.0625 2.60156C15.1406 3.53906 16.4531 5.29687 18 7.875C19.5469 5.29687 20.8594 3.53906 21.9375 2.60156C23.0156 1.61719 24.2812 1.125 25.7344 1.125C27.1406 1.125 28.3594 1.6875 29.3906 2.8125C30.4219 3.89062 30.9375 5.20312 30.9375 6.75C30.9375 7.96875 30.5859 9.09375 29.8828 10.125H32.625ZM19.4062 9.84375L19.2656 10.125H25.7344C26.5312 10.125 27.2109 9.79687 27.7734 9.14062C28.3828 8.48438 28.6875 7.6875 28.6875 6.75C28.6875 5.8125 28.3828 5.01562 27.7734 4.35938C27.2109 3.70313 26.5312 3.375 25.7344 3.375C24.7969 3.375 23.9062 3.77344 23.0625 4.57031C22.2656 5.36719 21.0469 7.125 19.4062 9.84375ZM10.2656 3.375C9.46875 3.375 8.76562 3.70313 8.15625 4.35938C7.59375 5.01562 7.3125 5.8125 7.3125 6.75C7.3125 7.6875 7.59375 8.48438 8.15625 9.14062C8.76562 9.79687 9.46875 10.125 10.2656 10.125H16.7344L16.5938 9.84375C14.9531 7.125 13.7109 5.36719 12.8672 4.57031C12.0703 3.77344 11.2031 3.375 10.2656 3.375ZM13.5 32.625V21.375H4.5V31.5C4.5 31.8281 4.59375 32.0859 4.78125 32.2734C5.01562 32.5078 5.29688 32.625 5.625 32.625H13.5ZM13.5 19.125V12.375H3.375C3.04688 12.375 2.76562 12.4922 2.53125 12.7266C2.34375 12.9141 2.25 13.1719 2.25 13.5V19.125H13.5ZM20.25 32.625V12.375H15.75V32.625H20.25ZM31.5 31.5V21.375H22.5V32.625H30.375C30.7031 32.625 30.9609 32.5078 31.1484 32.2734C31.3828 32.0859 31.5 31.8281 31.5 31.5ZM33.75 19.125V13.5C33.75 13.1719 33.6328 12.9141 33.3984 12.7266C33.2109 12.4922 32.9531 12.375 32.625 12.375H22.5V19.125H33.75Z" fill="url(#paint0_linear_1_43)"/>
<defs>
<linearGradient id="paint0_linear_1_43" x1="3.46482e-07" y1="35.5" x2="43.9024" y2="0.37805" gradientUnits="userSpaceOnUse">
<stop stop-color="#00ABFE"/>
<stop offset="1" stop-color="#6600FF"/>
</linearGradient>
</defs>
</svg>
