<svg width="36" height="36" viewBox="0 0 36 36" fill="none" xmlns="http://www.w3.org/2000/svg">
<g clip-path="url(#clip0_1_44)">
<path d="M35.7941 15.3984C35.9347 15.4922 36.005 15.6094 36.005 15.75C36.005 15.8906 35.9347 16.0078 35.7941 16.1016L32.9816 17.2266L31.8566 20.0391C31.7628 20.1797 31.6456 20.25 31.505 20.25C31.3644 20.25 31.2472 20.1797 31.1535 20.0391L30.0285 17.2266L27.2159 16.1016C27.0753 16.0078 27.005 15.8906 27.005 15.75C27.005 15.6094 27.0753 15.4922 27.2159 15.3984L30.0285 14.2031L31.1535 11.4609C31.2472 11.3203 31.3644 11.25 31.505 11.25C31.6456 11.25 31.7628 11.3203 31.8566 11.4609L32.9816 14.2031L35.7941 15.3984ZM25.5988 18.7734C26.255 18.8672 26.6769 19.2422 26.8644 19.8984C27.0988 20.5078 26.9816 21.0469 26.5128 21.5156L21.1691 26.7188L22.4347 34.1016C22.4347 34.1953 22.4347 34.2891 22.4347 34.3828C22.4347 34.8047 22.2706 35.1797 21.9425 35.5078C21.6613 35.8359 21.2863 36 20.8175 36C20.5831 36 20.3488 35.9297 20.1144 35.7891L13.505 32.3438L6.89565 35.7891C6.66127 35.9297 6.40346 36 6.12221 36C5.70033 36 5.32533 35.8359 4.99721 35.5078C4.71596 35.1797 4.57533 34.8047 4.57533 34.3828C4.57533 34.2891 4.57533 34.1953 4.57533 34.1016L5.84096 26.7188L0.497214 21.5156C0.0284638 21.0469 -0.112161 20.5078 0.0753338 19.8984C0.309714 19.2422 0.755024 18.8672 1.41127 18.7734L8.72377 17.7188L12.0285 11.0391C12.3097 10.4297 12.8019 10.125 13.505 10.125C14.1613 10.125 14.63 10.4297 14.9113 11.0391L18.2159 17.7188L25.5988 18.7734ZM18.7785 25.9453L24.0519 20.8125L16.7394 19.7578L13.505 13.1484L10.2706 19.7578L2.95815 20.8125L8.23159 25.9453L6.96596 33.1875L13.505 29.8125L19.9738 33.1875L18.7785 25.9453ZM29.7472 5.69531C30.1691 5.92969 30.38 6.28125 30.38 6.75C30.38 7.21875 30.1691 7.54687 29.7472 7.73438L26.3722 9.42188L24.6144 12.8672C24.4269 13.2891 24.0988 13.5 23.63 13.5C23.1613 13.5 22.8331 13.2891 22.6456 12.8672L20.8878 9.42188L17.5128 7.73438C17.0909 7.5 16.88 7.17188 16.88 6.75C16.88 6.28125 17.0909 5.92969 17.5128 5.69531L20.8878 4.00781L22.6456 0.5625C22.8331 0.1875 23.1613 0 23.63 0C24.0988 0 24.4269 0.1875 24.6144 0.5625L26.3722 4.00781L29.7472 5.69531ZM25.0363 7.59375L26.7238 6.75L25.0363 5.83594C24.8019 5.74219 24.6144 5.57812 24.4738 5.34375L23.63 3.58594L22.7863 5.34375C22.6456 5.57812 22.4581 5.74219 22.2238 5.83594L20.5363 6.75L22.2238 7.59375C22.4581 7.6875 22.6456 7.85156 22.7863 8.08594L23.63 9.8438L24.4738 8.08594C24.6144 7.85156 24.8019 7.6875 25.0363 7.59375Z" fill="url(#paint0_linear_1_44)"/>
</g>
<defs>
<linearGradient id="paint0_linear_1_44" x1="-0.0652877" y1="35.5" x2="43.8371" y2="0.378047" gradientUnits="userSpaceOnUse">
<stop stop-color="#00ABFE"/>
<stop offset="1" stop-color="#6600FF"/>
</linearGradient>
<clipPath id="clip0_1_44">
<rect width="36" height="36" fill="white"/>
</clipPath>
</defs>
</svg>
