<svg width="36" height="36" viewBox="0 0 36 36" fill="none" xmlns="http://www.w3.org/2000/svg">
<g clip-path="url(#clip0_1_45)">
<path d="M34.1314 12.3357C35.0276 12.4253 35.6102 12.8958 35.879 13.7472C36.1479 14.5985 35.9687 15.3379 35.3413 15.9652L28.2166 22.8883L29.8969 32.7016C30.0313 33.553 29.7401 34.2252 29.0231 34.718C28.3061 35.2558 27.5668 35.323 26.805 34.9197L18 30.3491L9.19496 34.9197C8.43316 35.3678 7.6938 35.323 6.97685 34.7852C6.2599 34.2475 5.96863 33.553 6.10306 32.7016L7.78342 22.8883L0.658705 15.9652C0.0313666 15.3379 -0.147872 14.5985 0.120986 13.7472C0.389843 12.8958 0.972367 12.4253 1.86856 12.3357L11.6818 10.857L16.0507 1.98466C16.4541 1.1781 17.1038 0.774811 18 0.774811C18.8962 0.774811 19.5459 1.1781 19.9493 1.98466L24.3182 10.857L34.1314 12.3357ZM25.9313 22.149L33.8626 14.4193L22.9066 12.8733L18 2.92567L13.0934 12.8733L2.13742 14.4193L10.0687 22.149L8.18671 33.0377L18 27.9294L27.8133 33.0377L25.9313 22.149Z" fill="url(#paint0_linear_1_45)"/>
</g>
<defs>
<linearGradient id="paint0_linear_1_45" x1="-1.35773" y1="34.7106" x2="41.4737" y2="-4.31363" gradientUnits="userSpaceOnUse">
<stop stop-color="#00ABFE"/>
<stop offset="1" stop-color="#6600FF"/>
</linearGradient>
<clipPath id="clip0_1_45">
<rect width="36" height="36" fill="white"/>
</clipPath>
</defs>
</svg>
